<?xml version="1.0" encoding="UTF-8"?><svg id="a" xmlns="http://www.w3.org/2000/svg" viewBox="0 0 162.731 37.6698">
<title>Nexa_Resources-logo - brandlogos.net</title><path d="M63.81,37.6698c5.016,0,10.984-.95,15.746-3.387v-9.031c-5.587,2.258-9.27,2.555-13.587,2.555-5.715,0-9.016-2.139-10.032-6.239h-11.619c1.206,10.279,9.397,16.102,19.492,16.102" style="fill:#ff4f00;"/><path d="M24.5081.0003C19.3021.0003,15.4921,2.0793,12.4451,4.8123c-.762-2.435-2.604-3.98-5.906-3.98H0v20.736h12.952v-9.091c1.905-1.485,4.191-2.614,6.7939-2.614,3.238,0,5.333,1.485,5.333,5.347v21.627h13.017V14.2003C38.0961,5.0503,32.699.0003,24.5081.0003" style="fill:#3c3c3c;"/><rect y="21.5673" width="12.952" height="15.27" style="fill:#ff4f00;"/><polygon points="150.985 26.678 150.985 32.798 150.985 36.838 162.731 36.838 162.731 21.568 150.985 21.568 150.985 26.678" style="fill:#ff4f00;"/><path d="M145.652.0003c-6.476,0-11.492,1.248-16.254,3.149v9.031c4.698-2.02,8.826-2.614,13.079-2.614,5.588,0,8.254,1.545,8.508,5.288h-8.38c-9.651,0-15.81,4.099-15.81,10.932,0,7.071,5.333,11.586,12.571,11.586,5.143,0,8.762-2.139,11.619-4.575v-6.119c-3.365,1.782-6.794,2.198-8.38,2.198-2.985,0-4.636-1.308-4.636-3.684,0-1.901,1.778-3.624,6.032-3.624h18.73v-5.526C162.731,6.5363,156.954.0003,145.652.0003" style="fill:#3c3c3c;"/><path d="M125.461.8323h-14.349l-6.413,9.209-2.9839-4.159c-2.286-3.208-3.873-5.05-8.5081-5.05h-10.857l14.157,17.529,3.291,4.074,11.631,14.402h15.365l-14.921-18.596L125.461.8323Z" style="fill:#3c3c3c;"/><polygon points="81.651 36.838 96.318 36.838 103.557 27.092 99.797 22.436 96.507 18.362 81.651 36.838" style="fill:#ff4f00;"/><path d="M63.175,0c-10.096,0-19.048,6.774-19.048,18.894,0,.892.064,1.783.19,2.674h36.509v-2.317c0-13.428-7.81-19.251-17.651-19.251M56,14.676c.762-4.575,4.063-5.882,7.302-5.882,3.428,0,5.65,1.96,5.904,5.882h-13.206Z" style="fill:#3c3c3c;"/></svg>