<?xml version="1.0" encoding="UTF-8" standalone="no"?>
<!-- Created with Inkscape (http://www.inkscape.org/) -->

<svg
   xmlns:dc="http://purl.org/dc/elements/1.1/"
   xmlns:cc="http://creativecommons.org/ns#"
   xmlns:rdf="http://www.w3.org/1999/02/22-rdf-syntax-ns#"
   xmlns:svg="http://www.w3.org/2000/svg"
   xmlns="http://www.w3.org/2000/svg"
   xmlns:sodipodi="http://sodipodi.sourceforge.net/DTD/sodipodi-0.dtd"
   xmlns:inkscape="http://www.inkscape.org/namespaces/inkscape"
   width="700mm"
   height="700mm"
   viewBox="0 0 700 700"
   version="1.1"
   id="svg2293"
   inkscape:version="0.92.4 (5da689c313, 2019-01-14)"
   sodipodi:docname="sulamerica-saude-logo.svg"
   inkscape:export-filename="C:\Users\suitedoalex\sites\sulamerica-saude-logo-0.png"
   inkscape:export-xdpi="148.6263"
   inkscape:export-ydpi="148.6263">
  <defs
     id="defs2287" />
  <sodipodi:namedview
     id="base"
     pagecolor="#ffffff"
     bordercolor="#666666"
     borderopacity="1.0"
     inkscape:pageopacity="0.0"
     inkscape:pageshadow="2"
     inkscape:zoom="0.12374369"
     inkscape:cx="861.15135"
     inkscape:cy="1619.5106"
     inkscape:document-units="mm"
     inkscape:current-layer="layer1"
     showgrid="false"
     inkscape:window-width="1600"
     inkscape:window-height="837"
     inkscape:window-x="-8"
     inkscape:window-y="-8"
     inkscape:window-maximized="1" />
  <metadata
     id="metadata2290">
    <rdf:RDF>
      <cc:Work
         rdf:about="">
        <dc:format>image/svg+xml</dc:format>
        <dc:type
           rdf:resource="http://purl.org/dc/dcmitype/StillImage" />
        <dc:title></dc:title>
      </cc:Work>
    </rdf:RDF>
  </metadata>
  <g
     inkscape:label="Layer 1"
     inkscape:groupmode="layer"
     id="layer1"
     transform="translate(0,403)">
    <g
       id="g432"
       transform="matrix(4.0176936,0,0,4.0176936,-2451.7432,507.86231)"
       inkscape:export-filename="C:\Users\suitedoalex\sites\sulamerica-saude-logo-4.png"
       inkscape:export-xdpi="19.488764"
       inkscape:export-ydpi="19.488764">
      <path
         d="m 730.95066,-117.70291 c 0.019,0.771 0.582,1.472 1.926,1.472 1.299,0 1.879,-0.592 1.879,-1.459 0,-0.901 -0.914,-1.164 -2.026,-1.512 -1.455,-0.448 -2.593,-0.921 -2.593,-2.308 0,-1.453 1.095,-2.274 2.71,-2.274 1.598,0 2.73301,0.809 2.74701,2.294 h -0.993 c -0.013,-0.948 -0.78101,-1.373 -1.75401,-1.373 -0.984,0 -1.703,0.477 -1.703,1.274 0,0.734 0.68,1.048 1.936,1.401 1.68901,0.458 2.682,1.129 2.682,2.497 0,1.299 -0.79,2.401 -2.846,2.401 -1.862,0 -2.936,-1.064 -2.955,-2.409 z"
         style="fill:#f36318;fill-opacity:1;fill-rule:nonzero;stroke:none"
         id="path434"
         inkscape:connector-curvature="0" />
    </g>
    <g
       id="g438"
       transform="matrix(4.0176936,0,0,4.0176936,-2451.7432,507.86231)"
       inkscape:export-filename="C:\Users\suitedoalex\sites\sulamerica-saude-logo-4.png"
       inkscape:export-xdpi="19.488764"
       inkscape:export-ydpi="19.488764">
      <path
         d="m 740.44286,-118.49781 c -0.369,-0.048 -0.756,-0.089 -1.117,-0.089 -0.91,0 -1.67399,0.25 -1.67399,1.247 0,0.949 0.691,1.247 1.54499,1.247 0.443,0 0.9,-0.112 1.246,-0.298 z m -3.381,-2.249 c 0.397,-0.365 0.994,-0.663 1.895,-0.663 2.125,0 2.486,1.198 2.486,2.462 v 3.552 h -0.783 l -0.024,-0.308 c -0.455,0.269 -1.037,0.402 -1.603,0.402 -1.22299,-0.023 -2.307,-0.533 -2.307,-2.038 0,-1.576 1.223,-1.962 2.449,-1.962 0.395,0 0.842,0.047 1.268,0.106 -0.014,-0.732 -0.246,-1.396 -1.584,-1.396 -0.51,0 -0.943,0.132 -1.287,0.353 z"
         style="fill:#f36318;fill-opacity:1;fill-rule:nonzero;stroke:none"
         id="path440"
         inkscape:connector-curvature="0" />
    </g>
    <g
       id="g444"
       transform="matrix(4.0176936,0,0,4.0176936,-2451.7432,507.86231)"
       inkscape:export-filename="C:\Users\suitedoalex\sites\sulamerica-saude-logo-4.png"
       inkscape:export-xdpi="19.488764"
       inkscape:export-ydpi="19.488764">
      <path
         d="m 744.57366,-122.25171 0.641,-1.401 h 0.98 l -0.932,1.401 z m 2.082,6.833 -0.023,-0.307 c -0.479,0.269 -1.061,0.401 -1.616,0.401 -1.148,0 -2.248,-0.546 -2.248,-2.029 v -3.959 h 0.998 v 3.902 c 0,0.921 0.549,1.302 1.387,1.302 0.457,0 0.92,-0.103 1.285,-0.276 v -4.928 h 0.998 v 5.894 z"
         style="fill:#f36318;fill-opacity:1;fill-rule:nonzero;stroke:none"
         id="path446"
         inkscape:connector-curvature="0" />
    </g>
    <g
       id="g450"
       transform="matrix(4.0176936,0,0,4.0176936,-2451.7432,507.86231)"
       inkscape:export-filename="C:\Users\suitedoalex\sites\sulamerica-saude-logo-4.png"
       inkscape:export-xdpi="19.488764"
       inkscape:export-ydpi="19.488764">
      <path
         d="m 752.31396,-120.36691 c -0.326,-0.14 -0.828,-0.256 -1.32,-0.256 -0.819,0 -1.354,0.348 -1.354,1.329 v 1.964 c 0.006,0.824 0.568,1.217 1.406,1.217 0.453,0 0.907,-0.102 1.268,-0.277 z m 0.215,4.948 -0.024,-0.306 c -0.455,0.269 -1.037,0.4 -1.601,0.4 -1.137,0 -2.262,-0.531 -2.262,-2.016 v -2.017 c 0,-1.561 1.104,-2.05 2.176,-2.05 0.523,0 1.082,0.132 1.496,0.306 v -2.551 h 0.998 v 8.234 z"
         style="fill:#f36318;fill-opacity:1;fill-rule:nonzero;stroke:none"
         id="path452"
         inkscape:connector-curvature="0" />
    </g>
    <g
       id="g456"
       transform="matrix(4.0176936,0,0,4.0176936,-2451.7432,507.86231)"
       inkscape:export-filename="C:\Users\suitedoalex\sites\sulamerica-saude-logo-4.png"
       inkscape:export-xdpi="19.488764"
       inkscape:export-ydpi="19.488764">
      <path
         d="m 758.18306,-119.27711 c 0,-1.012 -0.631,-1.345 -1.279,-1.345 -0.707,0 -1.33399,0.355 -1.33399,1.366 v 0.583 h 2.61299 z m -3.611,0.053 c 0,-1.379 0.875,-2.193 2.347,-2.193 1.483,0 2.204,0.86 2.204,2.172 v 1.231 h -3.579 v 0.799 c 0,0.805 0.52,1.144 1.299,1.144 0.559,0 1.063,-0.162 1.459,-0.448 l 0.553,0.466 c -0.486,0.452 -1.162,0.752 -2.088,0.752 -1.478,0 -2.195,-0.849 -2.195,-2.014 z"
         style="fill:#f36318;fill-opacity:1;fill-rule:nonzero;stroke:none"
         id="path458"
         inkscape:connector-curvature="0" />
    </g>
    <g
       id="g462"
       transform="matrix(4.0176936,0,0,4.0176936,-2451.7432,507.86231)"
       inkscape:export-filename="C:\Users\suitedoalex\sites\sulamerica-saude-logo-4.png"
       inkscape:export-xdpi="19.488764"
       inkscape:export-ydpi="19.488764">
      <path
         d="m 657.25736,-142.22051 c -0.326,0.343 -0.488,0.754 -0.488,1.233 v 6.994 c 0,0.822 -0.248,1.421 -0.744,1.798 -0.499,0.378 -1.055,0.566 -1.672,0.566 -0.61699,0 -1.166,-0.188 -1.647,-0.566 -0.48,-0.377 -0.719,-0.976 -0.719,-1.798 v -8.742 h -3.599 v 8.022 c 0,2.365 0.68101,3.817 1.826,4.679 1.189,0.897 2.52001,1.234 4.03501,1.233 1.50799,0 2.81499,-0.343 4.15799,-1.11 1.391,-0.794 1.91,-2.368 1.91,-4.802 v -8.022 h -1.8 c -0.514,0 -0.934,0.172 -1.26,0.515 z"
         style="fill:#1a2f5f;fill-opacity:1;fill-rule:nonzero;stroke:none"
         id="path464"
         inkscape:connector-curvature="0" />
    </g>
    <g
       id="g468"
       transform="matrix(4.0176936,0,0,4.0176936,-2451.7432,507.86231)"
       inkscape:export-filename="C:\Users\suitedoalex\sites\sulamerica-saude-logo-4.png"
       inkscape:export-xdpi="19.488764"
       inkscape:export-ydpi="19.488764">
      <path
         d="m 672.79826,-135.69121 2.467,-7.507 2.469,7.507 z m 1.645,-11.055 c -0.858,0 -1.44,0.394 -1.748,1.183 l -5.862,16.505 h 3.856 l 1.131,-3.651 h 6.89001 l 1.184,3.651 h 3.855 l -6.42801,-17.688 z"
         style="fill:#1a2f5f;fill-opacity:1;fill-rule:nonzero;stroke:none"
         id="path470"
         inkscape:connector-curvature="0" />
    </g>
    <g
       id="g474"
       transform="matrix(4.0176936,0,0,4.0176936,-2451.7432,507.86231)"
       inkscape:export-filename="C:\Users\suitedoalex\sites\sulamerica-saude-logo-4.png"
       inkscape:export-xdpi="19.488764"
       inkscape:export-ydpi="19.488764">
      <path
         d="m 703.35106,-141.86111 c -1.18,-0.914 -2.65599,-1.183 -4.164,-1.183 -0.754,0.035 -1.48199,0.147 -2.18599,0.334 -0.70301,0.19 -1.31,0.507 -1.826,0.952 -0.61701,-0.514 -1.30301,-0.857 -2.05601,-1.029 -0.754,-0.171 -1.526,-0.257 -2.313,-0.257 -1.475,0.07 -2.955,0.452 -4.037,1.286 -1.149,0.885 -1.826,2.348 -1.826,4.679 l -0.018,8.041 3.617,-0.02 v -8.741 c 0,-0.823 0.24101,-1.422 0.721,-1.799 0.481,-0.377 1.028,-0.566 1.647,-0.566 0.615,0 1.171,0.189 1.67001,0.566 0.496,0.377 0.746,0.976 0.746,1.799 v 0.72 8.021 h 3.54599 v -8.021 -0.72 c 0,-0.823 0.248,-1.422 0.74701,-1.799 0.49599,-0.377 1.05399,-0.566 1.67,-0.566 0.61699,0 1.17499,0.189 1.67099,0.566 0.498,0.377 0.746,0.976 0.746,1.799 v 6.993 c 0,0.514 0.145,0.954 0.469,1.28 0.326,0.326 0.746,0.488 1.26,0.488 h 1.801 l 0.017,-8.041 c 0,-2.399 -0.72,-3.869 -1.902,-4.782 z"
         style="fill:#1a2f5f;fill-opacity:1;fill-rule:nonzero;stroke:none"
         id="path476"
         inkscape:connector-curvature="0" />
    </g>
    <g
       id="g480"
       transform="matrix(4.0176936,0,0,4.0176936,-2451.7432,507.86231)"
       inkscape:export-filename="C:\Users\suitedoalex\sites\sulamerica-saude-logo-4.png"
       inkscape:export-xdpi="19.488764"
       inkscape:export-ydpi="19.488764">
      <path
         d="m 713.91556,-144.26541 2.611,-2.79 h -2.312 c -0.309,0 -0.565,0.044 -0.746,0.179 -0.157,0.114 -0.151,0.129 -0.334,0.409 l -1.44,2.498 c 0,0 0.613,-0.038 1.504,-0.038 0.543,0 0.717,-0.258 0.717,-0.258 z"
         style="fill:#1a2f5f;fill-opacity:1;fill-rule:nonzero;stroke:none"
         id="path482"
         inkscape:connector-curvature="0" />
    </g>
    <g
       id="g486"
       transform="matrix(4.0176936,0,0,4.0176936,-2451.7432,507.86231)"
       inkscape:export-filename="C:\Users\suitedoalex\sites\sulamerica-saude-logo-4.png"
       inkscape:export-xdpi="19.488764"
       inkscape:export-ydpi="19.488764">
      <path
         d="m 710.25536,-137.28491 c 0.033,-0.891 0.291,-1.576 0.771,-2.057 0.479,-0.479 1.096,-0.719 1.85,-0.719 0.824,0 1.457,0.24 1.902,0.719 0.412,0.446 0.65301,1.131 0.721,2.057 z m 2.52,-5.759 c -1.955,0 -3.481,0.635 -4.57699,1.903 -1.06201,1.233 -1.59501,2.948 -1.59501,5.141 0,2.297 0.548,4.063 1.646,5.296 1.098,1.269 2.623,1.903 4.576,1.903 1.61201,0 2.94801,-0.394 4.01,-1.182 1.06301,-0.754 1.783,-1.852 2.16,-3.291 h -2.57 c -0.412,0 -0.73,0.012 -0.959,0.328 0,0 -0.238,0.43 -0.87699,0.822 -0.63901,0.392 -1.592,0.392 -1.60001,0.392 -0.878,-0.005 -1.523,-0.33 -1.963,-0.874 -0.48,-0.515 -0.738,-1.302 -0.771,-2.365 l 8.813,-0.001 c 0,0 0.089,-0.008 0.093,-0.074 0.006,-0.069 0.034,-0.467 0.041,-0.85 0.037,-2.263 -0.551,-4.029 -1.64599,-5.297 -1.13101,-1.234 -2.725,-1.851 -4.78101,-1.851 z"
         style="fill:#1a2f5f;fill-opacity:1;fill-rule:nonzero;stroke:none"
         id="path488"
         inkscape:connector-curvature="0" />
    </g>
    <g
       id="g492"
       transform="matrix(4.0176936,0,0,4.0176936,-2451.7432,507.86231)"
       inkscape:export-filename="C:\Users\suitedoalex\sites\sulamerica-saude-logo-4.png"
       inkscape:export-xdpi="19.488764"
       inkscape:export-ydpi="19.488764">
      <path
         d="m 727.93506,-142.73801 c -0.104,0 -0.375,0.003 -0.443,0.003 -0.924,0 -1.82499,0.12 -2.69999,0.359 -0.873,0.24 -1.636,0.617 -2.287,1.131 -0.68701,0.55 -1.22601,1.278 -1.62101,2.187 -0.39199,0.908 -0.58999,2.03 -0.58999,3.367 v 6.633 h 3.6 v -7.044 c 0,-1.029 0.23799,-1.782 0.71899,-2.263 0.478,-0.48 1.217,-0.72 2.211,-0.72 l 1.123,-0.005 c 0,0 0.058,0 0.058,-0.054 0.002,-0.056 0,-3.562 0,-3.562 -0.004,-0.017 -0.006,-0.032 -0.07,-0.032 z"
         style="fill:#1a2f5f;fill-opacity:1;fill-rule:nonzero;stroke:none"
         id="path494"
         inkscape:connector-curvature="0" />
    </g>
    <g
       id="g498"
       transform="matrix(4.0176936,0,0,4.0176936,-2451.7432,507.86231)"
       inkscape:export-filename="C:\Users\suitedoalex\sites\sulamerica-saude-logo-4.png"
       inkscape:export-xdpi="19.488764"
       inkscape:export-ydpi="19.488764">
      <path
         d="m 720.88426,-139.05841 c -0.393,0.908 -0.59,2.03 -0.59,3.367 v 6.633 z"
         style="fill:#1a2f5f;fill-opacity:1;fill-rule:nonzero;stroke:none"
         id="path500"
         inkscape:connector-curvature="0" />
    </g>
    <g
       id="g504"
       transform="matrix(4.0176936,0,0,4.0176936,-2451.7432,507.86231)"
       inkscape:export-filename="C:\Users\suitedoalex\sites\sulamerica-saude-logo-4.png"
       inkscape:export-xdpi="19.488764"
       inkscape:export-ydpi="19.488764">
      <path
         d="m 743.37446,-132.99101 c -0.205,0.172 -0.48,0.564 -0.977,0.874 -0.423,0.219 -0.908,0.36 -1.49,0.36 -0.892,0 -1.56,-0.274 -2.006,-0.823 -0.617,-0.65 -0.92499,-1.765 -0.92499,-3.342 0,-1.577 0.30799,-2.708 0.92499,-3.393 0.481,-0.48 1.098,-0.72 1.852,-0.72 0.822,0 1.457,0.24 1.902,0.72 0.172,0.172 0.27,0.254 0.395,0.472 0.088,0.15 0.146,0.161 0.222,0.161 h 3.411 c 0.048,0 0.015,-0.118 0.013,-0.124 -0.279,-0.911 -0.691,-1.659 -1.265,-2.361 -1.131,-1.233 -2.725,-1.85 -4.78199,-1.85 -1.95301,0 -3.47801,0.633 -4.57601,1.902 -1.06199,1.234 -1.593,2.948 -1.593,5.142 0,2.296 0.54801,4.062 1.646,5.296 1.096,1.268 2.62101,1.902 4.574,1.902 1.612,0 2.949,-0.393 4.012,-1.182 1.06201,-0.754 1.781,-1.851 2.158,-3.291 h -2.57 c -0.41,0 -0.719,0.086 -0.926,0.257 z"
         style="fill:#1a2f5f;fill-opacity:1;fill-rule:nonzero;stroke:none"
         id="path506"
         inkscape:connector-curvature="0" />
    </g>
    <g
       id="g510"
       transform="matrix(4.0176936,0,0,4.0176936,-2451.7432,507.86231)"
       inkscape:export-filename="C:\Users\suitedoalex\sites\sulamerica-saude-logo-4.png"
       inkscape:export-xdpi="19.488764"
       inkscape:export-ydpi="19.488764">
      <path
         d="m 663.96226,-146.74291 c -0.025,0 -0.049,-0.003 -0.074,-0.003 -0.945,0 -1.717,0.729 -1.791,1.654 l -0.008,16.033 h 3.6 v -17.687 h -1.696 c -0.011,0 -0.021,0.002 -0.031,0.003 z"
         style="fill:#1a2f5f;fill-opacity:1;fill-rule:nonzero;stroke:none"
         id="path512"
         inkscape:connector-curvature="0" />
    </g>
    <g
       id="g516"
       transform="matrix(4.0176936,0,0,4.0176936,-2451.7432,507.86231)"
       inkscape:export-filename="C:\Users\suitedoalex\sites\sulamerica-saude-logo-4.png"
       inkscape:export-xdpi="19.488764"
       inkscape:export-ydpi="19.488764">
      <path
         d="m 644.70836,-138.15801 c -0.48,-0.205 -0.959,-0.411 -1.439,-0.616 -0.276,-0.069 -0.643,-0.163 -1.106,-0.283 -0.46299,-0.121 -1.002,-0.284 -1.619,-0.489 -0.275,-0.033 -0.703,-0.136 -1.28499,-0.308 -1.99001,-0.446 -2.98301,-1.131 -2.98301,-2.057 0,-0.685 0.25601,-1.217 0.77201,-1.594 0.44499,-0.377 1.18199,-0.566 2.211,-0.566 1.05999,0 1.90199,0.224 2.51899,0.669 0.309,0.24 0.54701,0.532 0.719,0.874 0.342,0.72 0.908,1.08 1.697,1.08 h 2.057 c -0.068,-1.714 -0.686,-3.102 -1.852,-4.165 -1.13,-0.96 -2.742,-1.44 -4.834,-1.44 -2.22799,0 -3.923,0.462 -5.089,1.388 -1.16599,0.961 -1.74799,2.28 -1.74799,3.96 0,0.96 0.17099,1.748 0.51499,2.364 0.274,0.721 0.752,1.27 1.438,1.646 0.58401,0.411 1.75,0.807 3.49801,1.182 l 0.40999,0.104 0.10301,0.051 c 3.08599,0.686 4.62699,1.578 4.62699,2.674 0,0.72 -0.275,1.268 -0.822,1.645 -0.549,0.378 -1.355,0.566 -2.41599,0.566 -1.20101,0 -2.14201,-0.24 -2.82801,-0.72 -0.652,-0.411 -1.04699,-1.132 -1.184,-2.16 h -3.597 c 0.101,1.954 0.787,3.428 2.056,4.423 1.16401,0.995 2.912,1.49 5.245,1.49 2.261,0 4.009,-0.479 5.244,-1.44 1.234,-1.027 1.85101,-2.467 1.85101,-4.319 0,-0.855 -0.18901,-1.645 -0.56601,-2.364 -0.377,-0.652 -0.908,-1.183 -1.594,-1.595 z"
         style="fill:#1a2f5f;fill-opacity:1;fill-rule:nonzero;stroke:none"
         id="path518"
         inkscape:connector-curvature="0" />
    </g>
    <g
       id="g522"
       transform="matrix(4.0176936,0,0,4.0176936,-2451.7432,507.86231)"
       inkscape:export-filename="C:\Users\suitedoalex\sites\sulamerica-saude-logo-4.png"
       inkscape:export-xdpi="19.488764"
       inkscape:export-ydpi="19.488764">
      <path
         d="m 755.76706,-132.19801 c -0.57,0.586 -0.922,0.631 -2.484,0.631 -0.664,0 -1.01399,-0.056 -1.469,-0.507 -0.27899,-0.277 -0.48299,-0.63 -0.48299,-1.14 0,-0.374 0.098,-0.813 0.395,-1.125 0.33399,-0.352 0.68899,-0.491 1.31199,-0.662 l 1.19,-0.255 c 0.861,-0.203 1.525,-0.443 2.01,-0.681 l 0.011,1.483 c 0,0.952 0.036,1.726 -0.482,2.256 z m 2.34,-9.793 c -0.967,-0.646 -2.414,-0.97 -4.346,-0.97 -1.723,0 -3.051,0.391 -3.98199,1.174 -0.82801,0.681 -1.311,1.548 -1.448,2.602 h 3.46499 c 0.172,-0.373 0.448,-0.628 0.82801,-0.765 0.37899,-0.136 0.80899,-0.204 1.29299,-0.204 0.448,0 0.965,0.069 1.479,0.215 0.557,0.157 0.797,0.499 0.797,1.01 0,0.68 -0.76,1.123 -2.276,1.327 l -1.449,0.203 c -1.31,0.205 -2.38699,0.613 -3.232,1.225 -0.84599,0.613 -1.266,1.633 -1.266,3.062 0,1.53 0.504,2.665 1.436,3.328 0.929,0.664 2.31201,0.87 3.552,0.87 0.846,0 0.94,0 1.844,-0.054 0.664,-0.04 1.344,-0.228 1.969,-0.499 0.223,0.14 0.463,0.268 0.73,0.354 0.362,0.116 2.079,0.066 2.079,0.066 l 0.015,-5.207 c 0.002,-0.081 0.01,-0.152 0.01,-0.236 v -4.644 c 0,-1.224 -0.5,-2.176 -1.498,-2.857 z"
         style="fill:#1a2f5f;fill-opacity:1;fill-rule:nonzero;stroke:none"
         id="path524"
         inkscape:connector-curvature="0" />
    </g>
    <g
       id="g528"
       transform="matrix(4.0176936,0,0,4.0176936,-2451.7432,507.86231)"
       inkscape:export-filename="C:\Users\suitedoalex\sites\sulamerica-saude-logo-4.png"
       inkscape:export-xdpi="19.488764"
       inkscape:export-ydpi="19.488764">
      <path
         d="m 733.06396,-146.92851 h -1.869 c -0.485,0 -0.901,0.173 -1.248,0.52 -0.344,0.345 -0.52,0.761 -0.52,1.246 v 1.091 h 3.637 z"
         style="fill:#1a2f5f;fill-opacity:1;fill-rule:nonzero;stroke:none"
         id="path530"
         inkscape:connector-curvature="0" />
    </g>
    <g
       id="g534"
       transform="matrix(4.0176936,0,0,4.0176936,-2451.7432,507.86231)"
       inkscape:export-filename="C:\Users\suitedoalex\sites\sulamerica-saude-logo-4.png"
       inkscape:export-xdpi="19.488764"
       inkscape:export-ydpi="19.488764">
      <path
         d="m 733.01706,-142.87671 c -0.016,0 -1.822,-0.001 -1.822,-0.001 -0.48499,0 -0.901,0.175 -1.248,0.521 -0.344,0.346 -0.51999,0.761 -0.51999,1.246 v 12.052 h 3.63699 l 0.002,-13.77 c 0,0 -0.008,-0.048 -0.049,-0.048 z"
         style="fill:#1a2f5f;fill-opacity:1;fill-rule:nonzero;stroke:none"
         id="path536"
         inkscape:connector-curvature="0" />
    </g>
    <g
       id="g540"
       transform="matrix(4.0176936,0,0,4.0176936,-2451.7432,507.86231)"
       inkscape:export-filename="C:\Users\suitedoalex\sites\sulamerica-saude-logo-4.png"
       inkscape:export-xdpi="19.488764"
       inkscape:export-ydpi="19.488764">
      <path
         d="m 726.03266,-162.47831 c 8.82,-1.979 16.719,0.972 26.42201,1.704 6.83799,0.517 9.70299,-0.78 9.70299,-0.78 0,0 0.209,-0.007 -0.084,0.198 -1.342,0.939 -4.93201,2.191 -14.309,1.738 -17.81201,-0.857 -20.40001,0.998 -29.15801,4.004 -7.54299,2.591 -11.111,2.933 -11.111,2.933 0,0 0.43501,-0.272 0.867,-0.546 3.13501,-1.986 10.69,-7.686 17.67,-9.251 z"
         style="fill:#d2421b;fill-opacity:1;fill-rule:nonzero;stroke:none"
         id="path542"
         inkscape:connector-curvature="0" />
    </g>
    <g
       id="g546"
       transform="matrix(4.0176936,0,0,4.0176936,-2451.7432,507.86231)"
       inkscape:export-filename="C:\Users\suitedoalex\sites\sulamerica-saude-logo-4.png"
       inkscape:export-xdpi="19.488764"
       inkscape:export-ydpi="19.488764">
      <path
         d="m 634.33336,-161.83371 c -0.205,0.25 7.062,4.86 20.49,4.708 15.477,-0.177 23.58401,-6.145 31.33401,0.916 11.96099,10.894 22.785,2.594 22.785,2.594 0,0 -1.457,0.752 -11.584,-0.118 -15.96601,-1.372 -10.861,-11.886 -24.51701,-9.931 -7.38699,1.058 -11.30099,3.095 -17.588,4.136 -12.76799,2.114 -20.684,-2.592 -20.92,-2.305 z"
         style="fill:#f36318;fill-opacity:1;fill-rule:nonzero;stroke:none"
         id="path548"
         inkscape:connector-curvature="0" />
    </g>
  </g>
</svg>
