<svg width="5280" height="2048" viewBox="0 0 5280 2048" fill="none" xmlns="http://www.w3.org/2000/svg">
<path d="M1647.8 1440.64V784.686C1647.8 781.402 1650.46 778.74 1653.75 778.74H1779.7C1782.98 778.74 1785.64 781.402 1785.64 784.686V1020.69H1787.46C1820.95 978.707 1871.31 960.021 1926.64 960.021C2025.77 960.021 2058.05 1024.94 2058.05 1110.84V1440.64C2057.99 1443.9 2055.36 1446.53 2052.1 1446.59H1925.67C1922.39 1446.59 1919.72 1443.93 1919.72 1440.64V1122.86C1919.72 1085.73 1880.77 1074.32 1856.02 1074.32C1831.27 1074.32 1785.64 1090.58 1785.64 1137.3V1440.64C1785.64 1443.93 1782.98 1446.59 1779.7 1446.59H1653.75C1652.17 1446.59 1650.66 1445.96 1649.54 1444.85C1648.43 1443.73 1647.8 1442.22 1647.8 1440.64Z" fill="#053D4E"/>
<path d="M2653.55 1311.17V1085H2595.55C2592.27 1085 2589.61 1082.34 2589.61 1079.05V997.877C2589.7 995.314 2591.33 993.06 2593.73 992.174L2670.54 969.605L2711.92 840.015C2712.77 837.654 2714.99 836.063 2717.5 836.011H2786.06C2787.64 835.978 2789.18 836.593 2790.3 837.716C2791.42 838.838 2792.04 840.37 2792 841.957V969.605H2893.93C2897.18 969.67 2899.81 972.294 2899.87 975.551V1079.17C2899.81 1082.41 2897.16 1085 2893.93 1085H2792V1296.86C2792 1318.82 2804.14 1332.17 2834.96 1332.17H2893.93C2897.18 1332.23 2899.81 1334.85 2899.87 1338.11V1429.12C2899.84 1431.66 2898.25 1433.92 2895.87 1434.82C2860.2 1448.17 2840.05 1456.17 2798.8 1456.17C2695.3 1456.17 2653.55 1396.11 2653.55 1311.17Z" fill="#053D4E"/>
<path d="M4626.18 1311.17V1085H4568.18C4564.9 1085 4562.23 1082.34 4562.23 1079.05V997.877C4562.32 995.314 4563.95 993.06 4566.36 992.174L4643.17 969.605L4684.54 840.015C4685.4 837.654 4687.62 836.063 4690.13 836.011H4758.08C4759.66 835.978 4761.19 836.593 4762.32 837.716C4763.44 838.838 4764.05 840.37 4764.02 841.957V969.605H4865.95C4869.2 969.67 4871.83 972.294 4871.89 975.551V1079.17C4871.83 1082.41 4869.18 1085 4865.95 1085H4763.9V1296.86C4763.9 1318.82 4776.03 1332.17 4806.85 1332.17H4865.82C4869.08 1332.23 4871.71 1334.85 4871.77 1338.11V1429.12C4871.73 1431.66 4870.15 1433.92 4867.77 1434.82C4832.09 1448.17 4811.95 1456.17 4770.69 1456.17C4667.92 1456.17 4626.18 1396.11 4626.18 1311.17Z" fill="#053D4E"/>
<path d="M2982.05 1440.77V975.553C2982.05 972.269 2984.71 969.607 2987.99 969.607H3101.57C3104.14 969.662 3106.41 971.305 3107.27 973.733C3107.27 975.796 3120.37 1021.05 3120.37 1021.05H3122.32C3155.68 979.193 3205.31 960.386 3260.64 960.386C3328.35 960.386 3360.99 990.963 3379.19 1037.68H3382.95C3417.05 980.042 3477.72 960.021 3532.81 960.021C3632.06 960.021 3663.73 1024.94 3663.73 1110.85V1440.77C3663.66 1444 3661.02 1446.59 3657.78 1446.59H3531.11C3527.87 1446.59 3525.23 1444 3525.16 1440.77V1125.29C3525.16 1088.03 3489.97 1073.59 3465.22 1073.59C3436.34 1073.59 3393.75 1091.8 3391.81 1134.26V1440.77C3391.81 1442.33 3391.18 1443.83 3390.06 1444.93C3388.94 1446.02 3387.43 1446.62 3385.86 1446.59H3259.31C3256.12 1446.53 3253.55 1443.96 3253.48 1440.77V1125.29C3253.48 1088.03 3216.11 1073.59 3189.05 1073.59C3164.18 1073.59 3120.13 1092.77 3120.13 1139.6V1440.77C3120.07 1443.96 3117.5 1446.53 3114.31 1446.59H2987.99C2984.76 1446.59 2982.11 1444 2982.05 1440.77Z" fill="#053D4E"/>
<path fill-rule="evenodd" clip-rule="evenodd" d="M3747.54 987.808V1074.44C3747.57 1076.1 3748.27 1077.67 3749.48 1078.79C3750.7 1079.91 3752.32 1080.49 3753.97 1080.39C3754.35 1080.39 3756.27 1080.27 3759.41 1080.08C3773.94 1079.17 3814.81 1076.63 3853.22 1076.63C3963.88 1076.63 3993 1084.76 3993 1124.31V1155.26H3876.88C3809.05 1155.26 3718.41 1180.13 3718.41 1304.14C3718.41 1386.16 3766.1 1455.81 3855.89 1455.81C3909.11 1455.81 3953.23 1443.8 3987.08 1400.45L3998.71 1442.22C3999.34 1444.84 4001.72 1446.67 4004.41 1446.59H4124.9C4128.14 1446.59 4130.78 1444 4130.85 1440.77V1121.28C4130.85 989.628 4058.77 960.021 3936.7 960.021C3874.67 961.46 3812.91 968.814 3752.27 981.984C3749.58 982.674 3747.66 985.038 3747.54 987.808ZM3916.79 1240.56H3992.51V1278.41C3993.41 1299.08 3985.6 1319.18 3970.97 1333.81C3956.34 1348.43 3936.25 1356.25 3915.58 1355.34C3883.67 1355.34 3850.54 1344.67 3850.54 1298.56C3850.54 1255.97 3876.63 1240.56 3916.79 1240.56Z" fill="#053D4E"/>
<path d="M4210.83 1440.76V975.545C4210.9 972.289 4213.52 969.664 4216.78 969.6H4329.38C4332.24 969.609 4334.68 971.647 4335.2 974.453L4348.67 1047.26H4350.49C4380.83 984.767 4443.8 962.319 4497.8 960.499C4499.42 960.433 4500.99 961.03 4502.16 962.152C4503.33 963.275 4503.99 964.825 4503.99 966.445V1095.79C4503.92 1099.05 4501.3 1101.67 4498.04 1101.74H4465.77C4379.01 1101.74 4348.67 1136.56 4348.67 1179.52V1440.76C4348.61 1443.99 4345.96 1446.58 4342.73 1446.58H4216.78C4213.54 1446.58 4210.9 1443.99 4210.83 1440.76Z" fill="#053D4E"/>
<path fill-rule="evenodd" clip-rule="evenodd" d="M2343.56 960.021C2175.63 960.021 2116.42 1056.36 2116.42 1208.16C2116.42 1360.44 2174.66 1456.18 2343.56 1456.18C2512.47 1456.18 2571.68 1359.95 2571.68 1208.16C2571.68 1056.36 2511.5 960.021 2343.56 960.021ZM2343.57 1340.54C2277.69 1340.54 2265.55 1290.19 2265.55 1208.16C2265.55 1126.01 2276.23 1076.51 2343.09 1076.51C2409.95 1076.51 2422.08 1126.14 2422.08 1208.16C2422.08 1290.19 2409.46 1340.54 2343.57 1340.54Z" fill="#053D4E"/>
<path fill-rule="evenodd" clip-rule="evenodd" d="M1241.91 645.024C1350.75 818.66 1395.28 1031 1388.6 1160.84C1388.6 1161.62 1388.63 1162.41 1388.66 1163.2C1388.7 1163.99 1388.73 1164.78 1388.73 1165.57C1386.31 1456.54 1148.48 1690.47 857.504 1688.05C566.531 1685.64 332.606 1447.8 335.018 1156.83C335.018 1149.79 335.383 1140.81 335.747 1135.35C335.869 1133.52 336.046 1131.6 336.227 1129.64C336.585 1125.77 336.96 1121.71 336.96 1117.76C337.819 1107.45 339.286 1094.22 339.855 1089.1C340.089 1086.99 340.171 1086.25 339.993 1087.67C359.893 896.074 464.972 689.798 580.851 568.459C581.923 566.917 584.042 566.537 585.583 567.609C587.125 568.682 587.505 570.8 586.433 572.342C572.236 602.798 542.751 690.283 583.763 693.074C597.475 693.074 604.391 685.065 612.521 668.806C622.266 649.068 631.887 622.38 642.924 591.762C686.168 471.805 751.163 291.509 930.671 232.35C934.19 231.137 938.437 233.078 935.282 238.174C882.406 321.096 881.042 426.808 931.763 511.065C968.408 571.735 1006.63 576.224 1027.5 558.145C1053.34 535.455 1046.67 468.84 1035.51 447.484C1033.69 443.965 1037.57 441.053 1040.85 443.237C1136.55 507.892 1150 589.239 1159.5 646.694C1166.25 687.578 1171.01 716.365 1201.98 718.434C1244.09 721.346 1242.39 673.538 1235.11 646.965C1234.02 642.233 1238.99 640.534 1241.91 645.024ZM617.493 1159.27C616.421 1294.18 724.882 1404.44 859.794 1405.58C924.67 1406.13 987.101 1380.86 1033.33 1335.34C1079.56 1289.81 1105.78 1227.78 1106.23 1162.9C1107.17 1027.99 998.591 917.844 863.678 916.841C728.766 915.839 618.566 1024.36 617.493 1159.27Z" fill="#F04E23"/>
</svg>
