<svg width="500" height="120" fill="none" version="1.1" viewBox="0 0 500 120" xmlns="http://www.w3.org/2000/svg">
 <path d="m351.2 98.446v-7.1174c1.3741 0.62263 2.8024 1.1139 4.2701 1.4669 1.5238 0.39949 3.0926 0.60672 4.6688 0.61683 1.2655 0.03875 2.531-0.05541 3.7759-0.28062 0.79186-0.18982 1.1869-0.5734 1.1869-1.1547 9e-3 -0.24973-0.0599-0.49609-0.19844-0.70426-0.13665-0.20798-0.33883-0.3671-0.57284-0.45434-0.86487-0.31544-1.7597-0.54719-2.6695-0.6919-1.0989-0.20555-2.106-0.42701-3.0327-0.66831-1.2936-0.34033-2.5441-0.83136-3.7235-1.463-1.0446-0.59792-1.9057-1.4686-2.4917-2.5188-0.64772-1.1124-0.97345-2.5939-0.97345-4.4444-0.0299-1.1846 0.22839-2.3591 0.7563-3.42 0.52978-1.0611 1.3085-1.9761 2.2726-2.6654 2.0199-1.5236 4.7587-2.2854 8.2182-2.2854 3.0495 0 5.4289 0.46258 7.1399 1.3877 0.8031 0.39874 1.4789 1.0118 1.9544 1.7715 0.37628 0.667 0.56535 1.703 0.56535 3.1079v2.768c-1.1532-0.58613-2.3718-1.0334-3.6298-1.3327-1.3067-0.3555-2.6526-0.54551-4.0061-0.56535-1.2486-0.04718-2.4991 0.05635-3.7253 0.30832-0.7357 0.20574-1.1026 0.58126-1.1026 1.127 4e-3 0.2413 0.0861 0.47474 0.23588 0.66494 0.14788 0.19038 0.35381 0.3276 0.58594 0.39088 0.92103 0.32311 1.8645 0.57172 2.823 0.74338 1.404 0.26358 2.6377 0.55487 3.701 0.87386 2.1248 0.61683 3.7347 1.5328 4.8298 2.7481 1.0933 1.2151 1.6418 3.0394 1.6436 5.4725 0 2.8389-1.0783 4.961-3.2386 6.366-2.1584 1.4051-5.1556 2.1075-8.9913 2.1075-4.139 3e-3 -7.563-0.71568-10.272-2.1549zm-24.117 0.59306c-2.1248-1.0588-3.9069-2.697-5.1406-4.7252-1.3179-2.1088-1.9769-4.6684-1.9769-7.6788s0.66831-5.5713 2.0049-7.6828c1.2449-2.0321 3.0308-3.6755 5.1612-4.745 2.0742-1.0298 4.3599-1.5658 6.6775-1.5658 2.3176 0 4.6033 0.53596 6.6794 1.5658 2.1266 1.0642 3.9088 2.7096 5.1387 4.745 1.3198 2.1088 1.9787 4.6698 1.9787 7.6828s-0.66831 5.5726-2.0012 7.6788c-1.2486 2.0235-3.0346 3.6596-5.1612 4.7252-2.0742 1.03-4.3599 1.5658-6.6775 1.5658-2.3176 0-4.6033-0.53577-6.6794-1.5658zm10.043-7.9359c0.79186-1.0966 1.1869-2.586 1.1869-4.4681s-0.38564-3.3728-1.1588-4.4721c-0.39687-0.51069-0.90419-0.92403-1.4864-1.2084-0.58033-0.28436-1.2187-0.43225-1.8645-0.43225-0.64772 0-1.2842 0.14789-1.8664 0.43225-0.58033 0.28436-1.0876 0.6977-1.4845 1.2084-0.79187 1.094-1.1869 2.5847-1.1869 4.4721s0.38563 3.3768 1.1588 4.4681c0.39687 0.51443 0.90606 0.93096 1.4882 1.2178 0.5822 0.28661 1.2243 0.43562 1.872 0.43562 0.64959 0 1.2917-0.14901 1.8739-0.43562 0.5822-0.28679 1.0914-0.70332 1.4883-1.2178zm-22.55 1.4117c0.61777-0.11869 1.4564-0.33228 2.5197-0.64061v7.1886c-2.5066 1.0337-5.1986 1.5412-7.9093 1.4907-3.4913 0-6.0448-1.0545-7.6547-3.1633-1.6099-2.1088-2.4149-4.977-2.4149-8.6042v-7.7539h-4.7269v-7.7026h4.7212v-7.8015h4.7811c1.5388 0 2.6789 0.51406 3.4164 1.5422 0.73758 1.0281 1.1064 2.3975 1.1064 4.1083v2.151h8.5289v7.7026h-8.5289v7.0382c0 3.0843 1.3198 4.625 3.9556 4.6224 0.73945 0.0095 1.477-0.04998 2.2052-0.17784zm-24.744-17.082c1.6455 1.8453 2.4673 4.4313 2.4673 7.758v16.746h-9.3152v-15.461c0-2.499-1.0783-3.7497-3.2348-3.7523-1.4714 0-2.8754 0.61683-4.212 1.8505v17.362h-9.2983v-26.607h4.7793c0.95286-0.04474 1.8945 0.234 2.6695 0.79093 0.70576 0.5603 1.2262 1.3213 1.4901 2.1826 1.0577-1.0744 2.2801-1.9727 3.6224-2.6611 1.3647-0.67037 2.8698-1.0051 4.3899-0.97663 2.7743-0.0026 4.9889 0.91991 6.6419 2.7678zm-28.73 13.254h-16.438c0.34633 1.5079 1.0483 2.6045 2.1079 3.2899 1.0596 0.68404 2.5197 1.0242 4.3506 1.0242 1.522 0.01441 3.042-0.0966 4.5471-0.33228 1.5893-0.31019 3.1338-0.81882 4.5977-1.5143v6.8801c-1.5893 0.88752-3.3041 1.5287-5.0844 1.902-1.8383 0.40604-3.716 0.6129-5.5992 0.61683-2.3962 0.0335-4.7624-0.53184-6.8834-1.6449-2.0499-1.0867-3.7366-2.7464-4.856-4.7765-1.1812-2.0879-1.7728-4.5711-1.7728-7.4495 0-2.8786 0.60841-5.3697 1.8234-7.4733 1.1307-2.0182 2.7912-3.6881 4.8055-4.8279 1.9581-1.1054 4.1709-1.6805 6.421-1.6687 3.6242 0 6.524 1.1217 8.6993 3.365 2.1734 2.2432 3.2592 5.8297 3.2573 10.759zm-8.3043-4.982c-0.0356-1.3011-0.395-2.3133-1.0277-3.0289-0.33135-0.3598-0.73758-0.64266-1.1887-0.82912-0.45303-0.18645-0.93975-0.272-1.4284-0.25029-2.5048 0-4.0136 1.3694-4.5247 4.1083zm-23.621-8.2444c1.5818 1.8664 2.3718 4.4603 2.3718 7.7816v16.694h-9.2796v-15.512c0-1.3364-0.23213-2.2869-0.69265-2.8509-0.26583-0.29597-0.59718-0.5266-0.96784-0.67412-0.37066-0.14733-0.7694-0.20761-1.1681-0.17597-1.4302 0.0483-2.8024 0.57284-3.9013 1.4907 0.0393 0.34108 0.058 0.6846 0.0505 1.0279v16.694h-9.2965v-15.512c0-1.3364-0.23026-2.2869-0.69077-2.8509-0.2677-0.29597-0.59905-0.5266-0.96971-0.67412-0.36879-0.14733-0.7694-0.20761-1.1663-0.17597-1.2655 0-2.5497 0.59961-3.8508 1.799v17.398h-9.2965v-26.591h4.7774c2.0873 0 3.4745 0.97532 4.1596 2.9262 2.3269-2.3962 4.9309-3.5943 7.8082-3.5943 1.3909-0.02733 2.7668 0.29072 4.0061 0.92515 1.1644 0.61758 2.1416 1.5401 2.823 2.6691 2.3531-2.3224 5.5318-3.6154 8.8378-3.5943 2.7051 0 4.8523 0.93302 6.4454 2.7994zm-53.369-5.7177c-0.45434-0.40904-0.81227-0.91373-1.0481-1.478-0.23588-0.56404-0.34389-1.1734-0.316-1.784-0.0255-0.61533 0.0885-1.2284 0.33378-1.7934 0.24524-0.56498 0.61496-1.0671 1.0818-1.4688 1.0341-0.78737 2.2992-1.2116 3.599-1.2065 1.2997 0.0051 2.5615 0.4388 3.5896 1.2342 0.44853 0.41465 0.8059 0.91785 1.0496 1.478 0.24393 0.56011 0.3686 1.1648 0.36636 1.7754-2e-3 0.61084-0.13142 1.2146-0.37928 1.7728-0.24785 0.55824-0.60896 1.059-1.0605 1.4703-1.0305 0.82762-2.3249 1.2558-3.6456 1.2061-1.2994 0.06009-2.5738-0.37029-3.5707-1.2061zm-1.0004 3.5864h4.7766c1.5367 0 2.6757 0.51275 3.4162 1.5382 0.74076 1.0253 1.1086 2.3962 1.1032 4.1123v20.957h-9.2961zm-19.881 25.71c-1.951-1.0779-3.5348-2.7154-4.5471-4.7014-1.1097-2.0879-1.6659-4.6394-1.6687-7.6551-0.0505-2.5714 0.56947-5.1117 1.7992-7.3705 1.0985-2.0334 2.7318-3.7278 4.7237-4.9s4.2662-1.7777 6.5772-1.7507c2.7047 0 4.8135 0.59961 6.3265 1.799 0.62919 0.48616 1.1021 1.1461 1.3602 1.898 0.2896 0.96634 0.42308 1.9729 0.39556 2.9814v2.6689c-0.94425-0.44554-1.9228-0.81452-2.9262-1.1032-0.92365-0.23512-1.8741-0.3482-2.8271-0.33603-4.0728 0-6.1105 2.0218-6.1131 6.0655 0 1.948 0.46258 3.4453 1.3879 4.4919 0.92534 1.0478 2.2934 1.5817 4.1123 1.5817 1.1402 0.0292 2.2794-0.09042 3.3887-0.35587 1.0601-0.32236 2.0907-0.73514 3.0802-1.2337v7.3426c-1.3016 0.74357-2.6983 1.3063-4.1518 1.6726-1.4413 0.32517-2.9157 0.48055-4.3931 0.46258-2.2715 0.0403-4.5161-0.49571-6.5244-1.5579zm14.017-58.956c-0.44442 1.1932-0.46389 2.5031-0.0552 3.709l3.4322 10.162c1.0734-1.1135 1.9053-2.4368 2.4436-3.8869l12.198-30.004h-10.573zm-9.122-15.105c-1.2219-3.6458-3.7644-4.915-7.9874-4.915h-5.2274l12.147 29.656c1.6764 4.1044 3.9541 6.2831 8.1296 6.2831 1.0983 0.02153 2.1905-0.17185 3.2146-0.56947l-10.008-29.656zm44.999 22.352c-5.4382 0-7.3196-3.7998-7.3196-9.6797 0-6.03 2.6957-9.4266 7.3196-9.4266 5.4364 0 7.4207 3.8 7.4207 9.4266 0 6.1329-2.6452 9.6797-7.4207 9.6797zm0-27.928c-8.7592 0-17.45 5.9983-17.45 18.256 0 11.91 7.2685 18.549 17.434 18.549 9.2534 0 17.588-6.0854 17.588-18.549 0-11.708-7.3196-18.248-17.588-18.248m46.714 0.6524h-26.738v8.7663h10.929v26.71h10.064v-26.71h10.521v-3.9541c0-3.195-1.4227-4.8162-4.7755-4.8162m148.54 0.0039h-4.5752v20.273l-13.621-20.273h-8.9913v35.476h9.3508v-19.664l13.724 19.664h8.894v-30.66c0-3.195-1.4246-4.8162-4.7774-4.8162m35.782 0h-26.738v8.7663h10.929v26.71h10.064v-26.71h10.521v-3.9541c0-3.195-1.4227-4.8162-4.7755-4.8162m14.385 0.0039h-5.339v35.476h10.064v-30.66c0-3.195-1.4227-4.8162-4.725-4.8162zm44.93 0h-5.1406l-8.7423 16.117-9.1935-16.117h-9.8506v35.476h9.3058v-21.352l6.1983 11.151h6.7617l6.1496-11.151v21.352h9.3507v-30.66c0-3.195-1.3198-4.8162-4.8279-4.8162m-181.98 16.319h-4.3768v-8.3035h4.6726c4.3225 0 5.7976 1.2178 5.7976 4.1557s-1.7279 4.1557-6.1009 4.1557zm16.259-4.0964c0-8.0072-4.7437-12.214-14.843-12.214h-15.547v35.476h9.7551v-11.309h6.0972l2.7949 6.1327c1.5819 3.4954 3.3565 5.1681 7.8288 5.1681h5.236l-7.1698-13.381c3.817-1.7715 5.8482-5.5358 5.8482-9.8854m-53.384 15.057c-5.4364 0-7.3177-3.7998-7.3177-9.6797 0-6.03 2.6957-9.4266 7.3177-9.4266 5.442 0 7.4432 3.8 7.4432 9.4346 0 6.1327-2.6414 9.6795-7.4226 9.6795zm0.0206-27.92c-8.7629-0.0079-17.453 5.9905-17.453 18.248 0 11.91 7.2672 18.549 17.432 18.549 9.2534 0 17.588-6.0854 17.588-18.549 0-11.708-7.3177-18.248-17.588-18.248m70.268 20.977 4.169-11.605 3.9106 11.605zm-1.3235-20.324-13.52 35.476h9.8113l2.5928-7.5128h12.763l0.86674 2.5345c1.2187 3.6497 3.1001 4.9663 7.3196 4.9663h5.1406l-13.793-35.464z" fill="#0f218b"/>
 <path d="m40.529 118.14c2.9142-1.6094 10.356-6.9276 18.292-25.231-6.8128-12.744-14.021-31.131-19.719-57.414-0.82238-3.7684-4.658-1.8782-4.658-1.8782l-31.593 12.345s-3.7011 1.2455-2.669 5.5358c6.03 25.061 12.523 42.704 19.055 54.001 7.0461 12.159 12.546 14.405 15.579 14.405h0.45471c0.92534-0.0476 2.574-0.2808 5.2589-1.7636z" fill="#0f218b"/>
 <path d="m80.818 119.9c27.714 0 40.996-92.862 44.8-115.82 0.51799-3.0051-1.6805-4.9584-5.4131-3.4994-9.9129 3.8829-33.037 12.811-39.102 15.073-4.2308 1.5816-4.4365 4.215-4.6658 5.8442-11.099 79.082-30.708 93.764-35.903 96.634-2.6849 1.4828-4.3496 1.7161-5.2591 1.7438h-0.45471z" fill="#8cc919"/>
</svg>
